<svg width="512" height="512" viewBox="0 0 512 512" xmlns="http://www.w3.org/2000/svg">
  <defs>
    <clipPath id="noArtha"><rect x="0" y="0" width="512" height="415"/></clipPath>
  </defs>
  <rect width="512" height="512" fill="#1B5E20"/>
  <g clip-path="url(#noArtha)">
    <!-- ROW 1 -->
    <text x="51"  y="74"  font-size="44" text-anchor="middle" font-family="serif"      fill="#FFD700" opacity="0.55">₹</text>
    <text x="153" y="74"  font-size="40" text-anchor="middle" font-family="sans-serif" fill="#FFD700" opacity="0.40">%</text>
    <line x1="256" y1="40" x2="256" y2="84" stroke="#FFD700" stroke-width="4" opacity="0.48"/>
    <rect x="248" y="51" width="16" height="20" fill="#FFD700" opacity="0.48" rx="1"/>
    <polyline points="336,76 350,60 364,67 380,50" fill="none" stroke="#FFD700" stroke-width="4" opacity="0.44" stroke-linecap="round" stroke-linejoin="round"/>
    <text x="460" y="74"  font-size="44" text-anchor="middle" font-family="serif"      fill="#FFD700" opacity="0.38">₹</text>
    <!-- ROW 2 -->
    <rect x="33"  y="152" width="9"  height="17" fill="#FFD700" opacity="0.42" rx="1"/>
    <rect x="46"  y="144" width="9"  height="25" fill="#FFD700" opacity="0.42" rx="1"/>
    <rect x="59"  y="135" width="9"  height="34" fill="#FFD700" opacity="0.42" rx="1"/>
    <text x="153" y="172" font-size="44" text-anchor="middle" font-family="serif"      fill="#FFD700" opacity="0.52">₹</text>
    <text x="256" y="172" font-size="40" text-anchor="middle" font-family="sans-serif" fill="#FFD700" opacity="0.38">▲</text>
    <line x1="358" y1="138" x2="358" y2="182" stroke="#FFD700" stroke-width="4" opacity="0.55"/>
    <rect x="350" y="149" width="16" height="20" fill="#FFD700" opacity="0.55" rx="1"/>
    <text x="460" y="172" font-size="40" text-anchor="middle" font-family="sans-serif" fill="#FFD700" opacity="0.40">%</text>
    <!-- ROW 3 -->
    <polyline points="29,268 43,254 57,261 73,246" fill="none" stroke="#FFD700" stroke-width="4" opacity="0.40" stroke-linecap="round" stroke-linejoin="round"/>
    <text x="153" y="268" font-size="40" text-anchor="middle" font-family="sans-serif" fill="#FFD700" opacity="0.48">▲</text>
    <text x="256" y="268" font-size="44" text-anchor="middle" font-family="serif"      fill="#FFD700" opacity="0.58">₹</text>
    <rect x="340" y="248" width="9"  height="17" fill="#FFD700" opacity="0.42" rx="1"/>
    <rect x="353" y="240" width="9"  height="25" fill="#FFD700" opacity="0.42" rx="1"/>
    <rect x="366" y="231" width="9"  height="34" fill="#FFD700" opacity="0.42" rx="1"/>
    <line x1="460" y1="234" x2="460" y2="278" stroke="#FFD700" stroke-width="4" opacity="0.38"/>
    <rect x="452" y="245" width="16" height="20" fill="#FFD700" opacity="0.38" rx="1"/>
    <!-- ROW 4 -->
    <text x="51"  y="364" font-size="40" text-anchor="middle" font-family="sans-serif" fill="#FFD700" opacity="0.44">%</text>
    <line x1="153" y1="330" x2="153" y2="374" stroke="#FFD700" stroke-width="4" opacity="0.52"/>
    <rect x="145" y="341" width="16" height="20" fill="#FFD700" opacity="0.52" rx="1"/>
    <polyline points="234,364 248,350 262,357 278,342" fill="none" stroke="#FFD700" stroke-width="4" opacity="0.40" stroke-linecap="round" stroke-linejoin="round"/>
    <text x="358" y="364" font-size="44" text-anchor="middle" font-family="serif"      fill="#FFD700" opacity="0.50">₹</text>
    <text x="460" y="364" font-size="40" text-anchor="middle" font-family="sans-serif" fill="#FFD700" opacity="0.38">▲</text>
  </g>
  <!-- A letterform -->
  <polygon points="256,55 380,375 330,375 256,175 182,375 132,375" fill="white"/>
  <!-- Rising gold bar chart -->
  <rect x="188" y="283" width="22" height="18" fill="#FFD700" rx="2"/>
  <rect x="216" y="271" width="22" height="30" fill="#FFD700" rx="2"/>
  <rect x="244" y="255" width="22" height="46" fill="#FFD700" rx="2"/>
  <rect x="272" y="239" width="22" height="62" fill="#FFD700" rx="2"/>
  <rect x="300" y="223" width="22" height="78" fill="#FFD700" rx="2"/>
  <!-- NAPHA text -->
  <text x="256" y="465" font-size="62" text-anchor="middle" fill="white" font-family="Arial,sans-serif" font-weight="bold" letter-spacing="6">NAPHA</text>
</svg>
